<?xml version="1.0" encoding="utf-8"?>
<!-- Generator: Adobe Illustrator 27.0.0, SVG Export Plug-In . SVG Version: 6.00 Build 0)  -->
<svg version="1.1" id="Layer_1" xmlns="http://www.w3.org/2000/svg" xmlns:xlink="http://www.w3.org/1999/xlink" x="0px" y="0px"
	 viewBox="0 0 283.46 283.46" enable-background="new 0 0 283.46 283.46" xml:space="preserve">
<g>
	<g>
		<path d="M115.04,48.84c-1.18-1.15-2.72-1.72-4.26-1.72c-1.57,0-3.14,0.6-4.34,1.79c-2.39,2.39-2.39,6.28,0,8.67l30.89,30.89
			c2.39,2.39,6.29,2.39,8.67,0l6.22-6.22c-0.07,0-0.15,0-0.22,0c-0.01,0-0.03,0-0.04,0c-0.02,0-0.04-0.01-0.05-0.01
			c-2.17,0-4.27-0.82-5.9-2.45L115.04,48.84z"/>
		<path d="M156.27,78.21l20.63-20.63c1.16-1.16,1.8-2.7,1.8-4.34c0-1.64-0.64-3.18-1.8-4.34c-2.37-2.37-6.25-2.38-8.63-0.03
			L152.04,65.1l0,0l-8.75,8.74l4.34,4.34C150,80.55,153.88,80.56,156.27,78.21z"/>
		<path d="M168.35,145.11c2.4,2.26,6.2,2.23,8.55-0.12c1.16-1.16,1.8-2.7,1.8-4.34c0-1.64-0.64-3.18-1.8-4.34l-30.89-30.89
			c-2.39-2.39-6.28-2.39-8.67,0l-6.22,6.22c0.05,0,0.11,0.01,0.16,0.01c0.24,0,0.48,0.03,0.73,0.05c0.32,0.02,0.63,0.03,0.94,0.09
			c0.19,0.04,0.38,0.11,0.56,0.15c0.34,0.09,0.68,0.17,1.01,0.3c0.22,0.09,0.43,0.22,0.65,0.33c0.28,0.14,0.56,0.26,0.83,0.44
			c0.33,0.21,0.62,0.48,0.92,0.75c0.13,0.12,0.28,0.21,0.41,0.33L168.35,145.11z"/>
		<path d="M131.38,113.93c-1.56,0-3.11,0.58-4.3,1.76l-20.63,20.63c-2.39,2.39-2.39,6.28,0,8.67c2.37,2.37,6.25,2.38,8.63,0.03
			l16.29-16.29l0,0l8.67-8.67l-4.34-4.34C134.52,114.52,132.95,113.93,131.38,113.93z"/>
		<path d="M93.56,123.57c-2.32,2.4-2.29,6.23,0.07,8.6c2.39,2.39,6.28,2.39,8.67,0l30.89-30.89c2.39-2.39,2.39-6.28,0-8.67
			l-6.22-6.22c0,0.06-0.01,0.11-0.01,0.17c0,0.27-0.03,0.53-0.05,0.8c-0.02,0.28-0.03,0.55-0.08,0.83
			c-0.05,0.28-0.15,0.55-0.23,0.82c-0.07,0.26-0.13,0.52-0.23,0.76c-0.12,0.29-0.28,0.57-0.43,0.85c-0.11,0.21-0.2,0.44-0.34,0.64
			c-0.26,0.4-0.58,0.77-0.91,1.13c-0.06,0.07-0.1,0.14-0.17,0.21L93.56,123.57z"/>
		<path d="M122.93,82.35l-20.63-20.63c-2.39-2.39-6.28-2.39-8.67,0c-2.37,2.37-2.38,6.24-0.03,8.64l16.29,16.29l0,0l8.67,8.67
			l4.34-4.34C125.27,88.62,125.29,84.74,122.93,82.35z"/>
		<path d="M156.43,106.53c0.02-0.28,0.03-0.55,0.08-0.82c0.05-0.28,0.15-0.55,0.22-0.82c0.07-0.26,0.13-0.52,0.23-0.77
			c0.11-0.28,0.27-0.55,0.42-0.82c0.12-0.22,0.21-0.46,0.35-0.67c0.22-0.34,0.5-0.64,0.77-0.95c0.11-0.12,0.19-0.27,0.31-0.39
			l30.95-30.95c2.34-2.4,2.32-6.25-0.06-8.62c-1.2-1.2-2.77-1.79-4.34-1.79c-1.57,0-3.14,0.6-4.34,1.79l-30.89,30.89
			c-1.16,1.16-1.8,2.7-1.8,4.34c0,1.64,0.64,3.18,1.8,4.34l6.22,6.22c0-0.06,0.01-0.11,0.01-0.17
			C156.37,107.07,156.41,106.8,156.43,106.53z"/>
		<path d="M160.41,111.54l20.63,20.63c1.16,1.16,2.7,1.8,4.34,1.8s3.18-0.64,4.34-1.8c2.37-2.37,2.38-6.24,0.03-8.64l-16.29-16.29
			l0,0l-8.67-8.67l-4.34,4.34C158.07,105.28,158.05,109.15,160.41,111.54z"/>
		<path d="M149.39,55.82c4.26-4.26,4.26-11.18,0-15.44c-4.26-4.26-11.18-4.26-15.44,0c-4.26,4.26-4.26,11.18,0,15.44
			C138.21,60.09,145.13,60.09,149.39,55.82z"/>
		<path d="M133.95,138.07c-4.26,4.26-4.26,11.18,0,15.44c4.26,4.26,11.18,4.26,15.44,0c4.26-4.26,4.26-11.18,0-15.44
			C145.13,133.81,138.21,133.81,133.95,138.07z"/>
		<path d="M100.55,104.67c4.26-4.26,4.26-11.18,0-15.44c-4.26-4.26-11.18-4.26-15.44,0c-4.26,4.26-4.26,11.18,0,15.44
			C89.37,108.93,96.28,108.93,100.55,104.67z"/>
		<path d="M198.24,89.23c-4.26-4.26-11.18-4.26-15.44,0c-4.26,4.26-4.26,11.18,0,15.44c4.26,4.26,11.18,4.26,15.44,0
			C202.5,100.41,202.5,93.49,198.24,89.23z"/>
	</g>
	<circle fill="#BBBDBF" cx="141.74" cy="47.95" r="10.95"/>
	<linearGradient id="SVGID_1_" gradientUnits="userSpaceOnUse" x1="108.1518" y1="45.3937" x2="149.4587" y2="86.7006">
		<stop  offset="0" style="stop-color:#0A82C5"/>
		<stop  offset="0.2541" style="stop-color:#3995CC"/>
		<stop  offset="0.7554" style="stop-color:#69BCDB"/>
		<stop  offset="1" style="stop-color:#7ACFE1"/>
	</linearGradient>
	<path fill="url(#SVGID_1_)" d="M146.9,78.94l-5.16-5.16l-20.65-20.65l-5.16-5.16c0,0,0-0.01-0.01-0.01
		c-2.85-2.85-7.47-2.85-10.32,0c-2.85,2.85-2.85,7.48,0,10.33l5.16,5.16l20.65,20.65l5.16,5.16c2.85,2.85,7.48,2.85,10.33,0
		l5.16-5.16l5.12-5.12C154.33,81.79,149.74,81.78,146.9,78.94z"/>
	
		<linearGradient id="SVGID_00000027604310608305657370000010681056012491116451_" gradientUnits="userSpaceOnUse" x1="146.8975" y1="78.9326" x2="177.8785" y2="47.9515">
		<stop  offset="0.0968" style="stop-color:#1F4C9E"/>
		<stop  offset="0.1916" style="stop-color:#1D55A4"/>
		<stop  offset="0.4311" style="stop-color:#1868B1"/>
		<stop  offset="0.6533" style="stop-color:#1276BC"/>
		<stop  offset="0.8498" style="stop-color:#0D7FC3"/>
		<stop  offset="1" style="stop-color:#0A82C5"/>
	</linearGradient>
	<path fill="url(#SVGID_00000027604310608305657370000010681056012491116451_)" d="M141.74,73.77l5.16,5.16
		c2.84,2.84,7.43,2.85,10.28,0.04l15.53-15.53l5.16-5.16c2.85-2.85,2.85-7.48,0-10.33c-2.84-2.84-7.43-2.85-10.28-0.04l-15.53,15.53
		l0,0L141.74,73.77"/>
	
		<linearGradient id="SVGID_00000021839574156345123350000002971375340937151645_" gradientUnits="userSpaceOnUse" x1="141.735" y1="37.0009" x2="141.735" y2="58.9072">
		<stop  offset="0" style="stop-color:#7AD0E2"/>
		<stop  offset="0.196" style="stop-color:#77CBE0"/>
		<stop  offset="0.3929" style="stop-color:#6DC0DC"/>
		<stop  offset="0.5904" style="stop-color:#5CB1D7"/>
		<stop  offset="0.7883" style="stop-color:#429CCF"/>
		<stop  offset="0.9848" style="stop-color:#1384C6"/>
		<stop  offset="1" style="stop-color:#0A82C5"/>
	</linearGradient>
	<circle fill="url(#SVGID_00000021839574156345123350000002971375340937151645_)" cx="141.74" cy="47.95" r="10.95"/>
	<circle fill="#BBBDBF" cx="141.74" cy="145.94" r="10.95"/>
	
		<linearGradient id="SVGID_00000036931164322052671480000015575672548438880384_" gradientUnits="userSpaceOnUse" x1="126.2878" y1="125.2887" x2="180.0172" y2="125.2887">
		<stop  offset="0" style="stop-color:#7AD0E2"/>
		<stop  offset="1" style="stop-color:#0A82C5"/>
	</linearGradient>
	<path fill="url(#SVGID_00000036931164322052671480000015575672548438880384_)" d="M136.57,114.96l5.16,5.16l20.65,20.65l5.16,5.16
		c0,0,0,0.01,0.01,0.01c2.85,2.85,7.47,2.85,10.32,0c2.85-2.85,2.85-7.48,0-10.33l-5.16-5.16l-20.65-20.65l-5.16-5.16
		c-2.85-2.85-7.48-2.85-10.33,0l-5.16,5.16l-5.12,5.12C129.14,112.11,133.73,112.12,136.57,114.96z"/>
	
		<linearGradient id="SVGID_00000015356118192669227480000008046375591008907411_" gradientUnits="userSpaceOnUse" x1="105.5916" y1="145.9446" x2="136.5726" y2="114.9636">
		<stop  offset="0" style="stop-color:#0A82C5"/>
		<stop  offset="0.1502" style="stop-color:#0D7FC3"/>
		<stop  offset="0.3467" style="stop-color:#1276BC"/>
		<stop  offset="0.5689" style="stop-color:#1868B1"/>
		<stop  offset="0.8084" style="stop-color:#1D55A4"/>
		<stop  offset="0.9032" style="stop-color:#1F4C9E"/>
	</linearGradient>
	<path fill="url(#SVGID_00000015356118192669227480000008046375591008907411_)" d="M141.73,120.12l-5.16-5.16
		c-2.84-2.84-7.43-2.85-10.28-0.04l-15.53,15.53l-5.16,5.16c-2.85,2.85-2.85,7.48,0,10.33c2.84,2.84,7.43,2.85,10.28,0.04
		l15.53-15.53l0,0L141.73,120.12"/>
	
		<linearGradient id="SVGID_00000070107600400403585850000013622640736538711480_" gradientUnits="userSpaceOnUse" x1="141.735" y1="156.8952" x2="141.735" y2="134.989">
		<stop  offset="0" style="stop-color:#7AD0E2"/>
		<stop  offset="0.196" style="stop-color:#77CBE0"/>
		<stop  offset="0.3929" style="stop-color:#6DC0DC"/>
		<stop  offset="0.5904" style="stop-color:#5CB1D7"/>
		<stop  offset="0.7883" style="stop-color:#429CCF"/>
		<stop  offset="0.9848" style="stop-color:#1384C6"/>
		<stop  offset="1" style="stop-color:#0A82C5"/>
	</linearGradient>
	<circle fill="url(#SVGID_00000070107600400403585850000013622640736538711480_)" cx="141.74" cy="145.94" r="10.95"/>
	<circle fill="#BBBDBF" cx="92.74" cy="96.95" r="10.95"/>
	
		<linearGradient id="SVGID_00000000202437351016975720000015728957105851469705_" gradientUnits="userSpaceOnUse" x1="113.3945" y1="81.5008" x2="113.3945" y2="135.2303">
		<stop  offset="0" style="stop-color:#7AD0E2"/>
		<stop  offset="1" style="stop-color:#0A82C5"/>
	</linearGradient>
	<path fill="url(#SVGID_00000000202437351016975720000015728957105851469705_)" d="M123.73,91.78l-5.16,5.16L97.91,117.6l-5.16,5.16
		c0,0-0.01,0-0.01,0.01c-2.85,2.85-2.85,7.47,0,10.32c2.85,2.85,7.48,2.85,10.33,0l5.16-5.16l20.65-20.65l5.16-5.16
		c2.85-2.85,2.85-7.48,0-10.33l-5.16-5.16l-5.12-5.12C126.57,84.36,126.56,88.94,123.73,91.78z"/>
	
		<linearGradient id="SVGID_00000052088110653178995210000014379467947485999533_" gradientUnits="userSpaceOnUse" x1="92.7385" y1="60.8046" x2="123.7195" y2="91.7857">
		<stop  offset="0" style="stop-color:#0A82C5"/>
		<stop  offset="0.1502" style="stop-color:#0D7FC3"/>
		<stop  offset="0.3467" style="stop-color:#1276BC"/>
		<stop  offset="0.5689" style="stop-color:#1868B1"/>
		<stop  offset="0.8084" style="stop-color:#1D55A4"/>
		<stop  offset="0.9032" style="stop-color:#1F4C9E"/>
	</linearGradient>
	<path fill="url(#SVGID_00000052088110653178995210000014379467947485999533_)" d="M118.56,96.94l5.16-5.16
		c2.84-2.84,2.85-7.43,0.04-10.28l-15.53-15.53l-5.16-5.16c-2.85-2.85-7.48-2.85-10.33,0c-2.84,2.84-2.85,7.43-0.04,10.28
		l15.53,15.53l0,0L118.56,96.94"/>
	
		<linearGradient id="SVGID_00000175291570713015510680000006286956486653085070_" gradientUnits="userSpaceOnUse" x1="81.7879" y1="96.9481" x2="103.6941" y2="96.9481">
		<stop  offset="0" style="stop-color:#7AD0E2"/>
		<stop  offset="0.196" style="stop-color:#77CBE0"/>
		<stop  offset="0.3929" style="stop-color:#6DC0DC"/>
		<stop  offset="0.5904" style="stop-color:#5CB1D7"/>
		<stop  offset="0.7883" style="stop-color:#429CCF"/>
		<stop  offset="0.9848" style="stop-color:#1384C6"/>
		<stop  offset="1" style="stop-color:#0A82C5"/>
	</linearGradient>
	<circle fill="url(#SVGID_00000175291570713015510680000006286956486653085070_)" cx="92.74" cy="96.95" r="10.95"/>
	<circle fill="#BBBDBF" cx="190.73" cy="96.95" r="10.95"/>
	
		<linearGradient id="SVGID_00000009557008855945153110000012810051950112542592_" gradientUnits="userSpaceOnUse" x1="147.2835" y1="85.5306" x2="192.8677" y2="85.5306">
		<stop  offset="0" style="stop-color:#7AD0E2"/>
		<stop  offset="1" style="stop-color:#0A82C5"/>
	</linearGradient>
	<path fill="url(#SVGID_00000009557008855945153110000012810051950112542592_)" d="M159.74,102.11l5.16-5.16l20.65-20.65l5.16-5.16
		c0,0,0.01,0,0.01-0.01c2.85-2.85,2.85-7.47,0-10.32c-2.85-2.85-7.48-2.85-10.33,0l-5.16,5.16l-20.65,20.65l-5.16,5.16
		c-2.85,2.85-2.85,7.48,0,10.33l5.16,5.16l5.12,5.12C156.9,109.54,156.91,104.95,159.74,102.11z"/>
	
		<linearGradient id="SVGID_00000147189649299361665990000011177528191253620413_" gradientUnits="userSpaceOnUse" x1="159.7505" y1="102.1105" x2="190.7316" y2="133.0915">
		<stop  offset="0.0968" style="stop-color:#1F4C9E"/>
		<stop  offset="0.1916" style="stop-color:#1D55A4"/>
		<stop  offset="0.4311" style="stop-color:#1868B1"/>
		<stop  offset="0.6533" style="stop-color:#1276BC"/>
		<stop  offset="0.8498" style="stop-color:#0D7FC3"/>
		<stop  offset="1" style="stop-color:#0A82C5"/>
	</linearGradient>
	<path fill="url(#SVGID_00000147189649299361665990000011177528191253620413_)" d="M164.91,96.95l-5.16,5.16
		c-2.84,2.84-2.85,7.43-0.04,10.28l15.53,15.53l5.16,5.16c2.85,2.85,7.48,2.85,10.33,0c2.84-2.84,2.85-7.43,0.04-10.28l-15.53-15.53
		l0,0L164.91,96.95"/>
	
		<linearGradient id="SVGID_00000047766713171464513530000001180086820526298767_" gradientUnits="userSpaceOnUse" x1="179.7759" y1="96.9481" x2="201.6822" y2="96.9481">
		<stop  offset="0" style="stop-color:#0A82C5"/>
		<stop  offset="0.0152" style="stop-color:#1384C6"/>
		<stop  offset="0.2117" style="stop-color:#429CCF"/>
		<stop  offset="0.4096" style="stop-color:#5CB1D7"/>
		<stop  offset="0.6071" style="stop-color:#6DC0DC"/>
		<stop  offset="0.804" style="stop-color:#77CBE0"/>
		<stop  offset="1" style="stop-color:#7AD0E2"/>
	</linearGradient>
	<circle fill="url(#SVGID_00000047766713171464513530000001180086820526298767_)" cx="190.73" cy="96.95" r="10.95"/>
	<g>
		<path fill="#1F4C9E" d="M22.22,174.71H3.54c-0.88,0-1.59,0.71-1.59,1.59v34.2c0,0.88,0.71,1.59,1.59,1.59h3.45
			c0.88,0,1.59-0.71,1.59-1.59v-12.72v-1.59h1.59h9.71c0.88,0,1.59-0.71,1.59-1.59v-2.87c0-0.88-0.71-1.59-1.59-1.59h-9.71H8.59
			v-1.59v-6.12v-1.59h1.59h12.04c0.88,0,1.59-0.71,1.59-1.59v-2.92C23.82,175.42,23.1,174.71,22.22,174.71z"/>
		<path fill="#1F4C9E" d="M55.24,174.28c-9.02,0-12.46,3.25-12.46,11.15v15.81c0,7.71,3.59,11.15,12.46,11.15
			c8.87,0,12.75-3.44,12.75-11.15v-15.81C68,177.52,64.26,174.28,55.24,174.28z M61.3,200.9c0,3.54-1.21,5.58-6.06,5.58
			c-4.85,0-5.77-2.04-5.77-5.58v-15.13c0-3.39,0.92-5.58,5.77-5.58c5.19,0,6.06,2.18,6.06,5.58V200.9z"/>
		<path fill="#1F4C9E" d="M149.21,174.86h-18.88c-0.89,0-1.62,0.72-1.62,1.62v2.73c0,0.89,0.72,1.62,1.62,1.62h4.52h1.62v1.62v27.99
			c0,0.89,0.72,1.62,1.62,1.62h3.41c0.89,0,1.62-0.72,1.62-1.62v-27.99v-1.62h1.62h4.48c0.89,0,1.62-0.72,1.62-1.62v-2.73
			C150.83,175.58,150.1,174.86,149.21,174.86z"/>
		<path fill="#1F4C9E" d="M191.81,174.76h-3.4c-0.91,0-1.65,0.74-1.65,1.65v24.25c0,3.54-1.89,5.82-5.87,5.82
			c-3.98,0-5.53-2.28-5.53-5.82v-24.25c0-0.91-0.74-1.65-1.65-1.65h-3.39c-0.91,0-1.65,0.74-1.65,1.65v24.58
			c0,7.71,4.36,11.4,12.22,11.4c7.85,0,12.56-3.69,12.56-11.4v-24.58C193.46,175.5,192.72,174.76,191.81,174.76z"/>
		<path fill="#1F4C9E" d="M236.57,174.76h-3.64c-0.83,0-1.5,0.67-1.5,1.5v5.36v1.97v14.13l-9.83-22.06
			c-0.24-0.54-0.78-0.89-1.37-0.89h-4.17c-0.83,0-1.5,0.67-1.5,1.5v34.29c0,0.83,0.67,1.5,1.5,1.5h3.64c0.83,0,1.5-0.67,1.5-1.5
			v-3.81v-4.2v-12.9l2.59,5.6l0,0l7.38,15.94c0.25,0.53,0.78,0.87,1.36,0.87h4.04c0.83,0,1.5-0.67,1.5-1.5v-34.29
			C238.07,175.43,237.4,174.76,236.57,174.76z"/>
		<path fill="#1F4C9E" d="M279.95,205.99h-12.32h-1.57v-1.57v-6.7v-1.57h1.57h9.46c0.87,0,1.57-0.7,1.57-1.57v-2.87
			c0-0.87-0.7-1.57-1.57-1.57h-9.46h-1.57v-1.57v-6.45v-1.57h1.57h11.64c0.87,0,1.57-0.7,1.57-1.57v-2.67c0-0.87-0.7-1.57-1.57-1.57
			h-18.33c-0.87,0-1.57,0.7-1.57,1.57v34.24c0,0.87,0.7,1.57,1.57,1.57h19.01c0.87,0,1.57-0.7,1.57-1.57v-2.96
			C281.52,206.69,280.82,205.99,279.95,205.99z"/>
		<path fill="#1F4C9E" d="M111.99,209.71L111.99,209.71l-3.39-5.88l-2.53-4.39l-0.92-1.59c0.83-0.27,1.57-0.59,2.23-0.97
			c0.07-0.04,0.13-0.08,0.2-0.12c0.14-0.08,0.28-0.17,0.41-0.26c0.07-0.05,0.15-0.11,0.22-0.16c0.12-0.09,0.23-0.17,0.34-0.26
			c0.07-0.06,0.14-0.12,0.21-0.18c0.1-0.09,0.2-0.19,0.3-0.28c0.06-0.06,0.13-0.13,0.19-0.2c0.1-0.1,0.19-0.21,0.28-0.32
			c0.06-0.07,0.11-0.13,0.17-0.2c0.09-0.12,0.18-0.25,0.27-0.37c0.04-0.06,0.09-0.12,0.13-0.18c0.12-0.19,0.24-0.39,0.35-0.6
			c0.11-0.21,0.21-0.42,0.3-0.64c0.03-0.07,0.06-0.15,0.08-0.22c0.06-0.15,0.12-0.31,0.17-0.47c0.03-0.09,0.06-0.19,0.08-0.28
			c0.04-0.15,0.09-0.3,0.12-0.46c0.03-0.1,0.05-0.21,0.07-0.31c0.03-0.16,0.07-0.32,0.09-0.48c0.02-0.11,0.04-0.22,0.05-0.33
			c0.03-0.17,0.05-0.35,0.07-0.52c0.01-0.11,0.03-0.22,0.04-0.33c0.02-0.2,0.03-0.4,0.04-0.61c0.01-0.1,0.01-0.19,0.02-0.29
			c0.01-0.31,0.02-0.62,0.02-0.95v-1.94c0-7.9-4.22-11.2-13.24-11.2h-7.85c-0.86,0-1.56,0.7-1.56,1.56v34.22
			c0,0.86,0.7,1.56,1.56,1.56h3.57c0.86,0,1.56-0.7,1.56-1.56v-10.02v-1.56h1.56h0.91l0.45,0.79l3.26,5.78l3.33,5.89
			c0.28,0.41,0.75,0.68,1.28,0.68h0.01h4.19C111.84,212.05,112.59,210.75,111.99,209.71z M104.56,187.51c0,3.54-1.36,5.24-6.21,5.24
			h-1.2h-1.56v-1.56v-8.76v-1.56h1.56h1.3c5.19,0,6.11,1.84,6.11,5.38V187.51z"/>
	</g>
	<g>
		<path fill="#0A82C5" d="M24.41,224.03h5.09c3.59,0,5.48,2.12,5.48,5.24c0,1.68-0.47,2.81-1.44,3.8c2.2,0.68,3.38,2.49,3.38,5.09
			c0,4.3-2.41,6.19-6.53,6.19h-5.98V224.03z M26.9,226.37v6h2.33c2.41,0,3.2-1.63,3.2-3.09c0-1.97-1.26-2.91-2.94-2.91H26.9z
			 M30.44,241.96c3.04,0,3.93-1.47,3.93-3.78c0-2.57-1.49-3.43-3.85-3.43h-3.56v7.21H30.44z"/>
		<path fill="#0A82C5" d="M60.18,236.7l4.38,7.63h-2.94l-4.06-7.47h-2.28v7.5h-2.49v-20.26l5.43-0.03c3.54,0,5.74,1.47,5.74,5.53
			v1.41C63.96,234.23,62.99,236.14,60.18,236.7z M55.28,226.45v8.02h2.94c2.23,0,3.25-0.68,3.25-3.46v-1.41
			c0-2.78-1.02-3.01-3.25-3.15H55.28z"/>
		<path fill="#0A82C5" d="M92.86,237.69c0,4.43-1,6.82-6.55,6.82s-6.55-2.39-6.55-6.82v-7.05c0-4.43,1-6.82,6.55-6.82
			s6.55,2.39,6.55,6.82V237.69z M90.35,230.61c0-3.2-0.26-4.51-4.04-4.51c-3.78,0-4.04,1.31-4.04,4.51v7.1
			c0,3.2,0.26,4.46,4.04,4.46c3.77,0,4.04-1.26,4.04-4.46V230.61z"/>
		<path fill="#0A82C5" d="M117.78,244.32l-1.02-3.75h-6.06l-1.02,3.75h-2.6l5.37-20.16h2.54l5.35,20.16H117.78z M113.72,227.41
			l-1.36,6.58l-1.02,4.22h4.77l-1.05-4.3L113.72,227.41z"/>
		<path fill="#0A82C5" d="M135.55,244.32v-20.21h6.13c5.4,0,6.37,2.39,6.37,6.76v6.66c0,4.4-1,6.84-6.55,6.79H135.55z M141.5,241.94
			c3.77,0,4.04-1.18,4.04-4.38v-6.71c0-3.2-0.26-4.38-4.04-4.38h-3.46v15.47H141.5z"/>
		<path fill="#0A82C5" d="M164.11,224.03h5.09c3.59,0,5.48,2.12,5.48,5.24c0,1.68-0.47,2.81-1.44,3.8c2.2,0.68,3.38,2.49,3.38,5.09
			c0,4.3-2.41,6.19-6.53,6.19h-5.98V224.03z M166.6,226.37v6h2.33c2.41,0,3.2-1.63,3.2-3.09c0-1.97-1.26-2.91-2.94-2.91H166.6z
			 M170.14,241.96c3.04,0,3.93-1.47,3.93-3.78c0-2.57-1.49-3.43-3.85-3.43h-3.56v7.21H170.14z"/>
		<path fill="#0A82C5" d="M201.17,244.32l-1.02-3.75h-6.06l-1.02,3.75h-2.6l5.37-20.16h2.54l5.35,20.16H201.17z M197.11,227.41
			l-1.36,6.58l-1.02,4.22h4.77l-1.05-4.3L197.11,227.41z"/>
		<path fill="#0A82C5" d="M228.09,239.58l-0.37-6.87v-8.6h2.49v20.21h-2.33l-6.66-14.52l0.16,6.63v7.89h-2.49v-20.21h2.36
			L228.09,239.58z"/>
		<path fill="#0A82C5" d="M246.98,244.32v-20.21h6.13c5.4,0,6.37,2.39,6.37,6.76v6.66c0,4.4-1,6.84-6.55,6.79H246.98z
			 M252.93,241.94c3.77,0,4.04-1.18,4.04-4.38v-6.71c0-3.2-0.26-4.38-4.04-4.38h-3.46v15.47H252.93z"/>
	</g>
</g>
</svg>
